<svg width="466" height="466" viewBox="0 0 466 466" fill="none" xmlns="http://www.w3.org/2000/svg">
<path d="M0 120C0 63.4315 0 35.1472 17.5736 17.5736C35.1472 0 63.4315 0 120 0H346C402.569 0 430.853 0 448.426 17.5736C466 35.1472 466 63.4315 466 120V346C466 402.569 466 430.853 448.426 448.426C430.853 466 402.569 466 346 466H120C63.4315 466 35.1472 466 17.5736 448.426C0 430.853 0 402.569 0 346V120Z" fill="black"/>
<path d="M155.243 83.3326C147.854 84.7499 141.247 88.1921 135.422 93.7458C134.002 95.1052 132.756 96.2044 132.64 96.2044C132.553 96.2044 131.51 95.2499 130.351 94.0928C127.511 91.2871 125.077 89.7251 121.802 88.6838C113.543 86.0227 104.589 89.6673 100.792 97.2168C99.2855 100.254 98.7059 103.956 99.1406 107.861C100.039 115.671 104.589 121.225 111.833 123.365C113.456 123.857 118.382 124.841 119.165 124.841C119.947 124.841 119.947 124.956 115.514 149.716C112.674 165.51 110.877 179.307 110.153 190.935C109.138 206.873 110.761 224.142 114.354 236.493C115.861 241.584 116.035 242.133 117.687 246.472C121.251 255.931 125.743 263.972 132.002 272.071C135.364 276.41 138.233 279.592 146.695 288.269C155.156 296.976 156.576 298.596 159.764 303.455C163.908 309.732 167.212 317.05 169.298 324.571C171.993 334.203 172.805 339.93 174.34 359.281C175.181 370.042 175.326 371.025 176.63 373.744C178.021 376.608 179.093 377.967 181.266 379.529C185.613 382.595 187.729 382.971 201.146 383C210.303 383 211.665 382.942 213.607 382.451C220.069 380.802 223.749 377.446 225.459 371.575C225.98 369.752 226.357 367.178 227.227 358.847C230.211 330.732 232.182 320.608 236.268 312.422C240.934 303.137 249.279 296.311 258.437 294.344C266 292.724 273.1 293.649 279.562 297.063C288.806 301.98 294.805 310.339 297.239 321.707C298.572 328.013 299.5 337.182 300.253 351.616C301.122 368.74 301.325 370.244 302.919 373.599C304.513 376.897 306.744 379.124 310.106 380.802C314.279 382.827 315.467 383 327.058 383C338.476 383 338.94 382.942 343.373 380.831C346.358 379.413 348.995 376.897 350.357 374.207C351.777 371.459 352.299 368.277 353.139 358.124C355.342 330.819 358.558 309.645 363.977 286.36C365.223 281.096 367.049 269.959 367.658 264.261C368.179 259.112 368.092 249.625 367.484 243.869C366.73 236.984 364.673 228.625 362.094 222.117C356.646 208.348 346.271 193.596 331.84 179.22C325.088 172.452 319.872 168.547 312.656 164.787C304.252 160.419 296.254 158.568 285.764 158.597C271.129 158.626 260.407 162.125 249.048 170.63C243.223 174.968 238.441 179.77 228.936 190.791C217.461 204.125 213.636 207.567 207.318 210.171C204.362 211.414 201.551 211.964 198.248 211.964C194.597 211.935 191.67 211.299 188.685 209.852C185.41 208.233 181.875 204.762 180.078 201.348C177.963 197.299 177.528 195.274 177.528 188.91C177.528 184.051 177.615 183.096 178.224 180.667C179.296 176.444 181.846 170.832 183.932 168.055C185.787 165.597 187.468 163.948 194.162 157.989C197.668 154.836 200.624 152.175 200.711 152.031C200.798 151.886 201.754 152.117 202.826 152.522C210.622 155.473 213.143 156.08 218.388 156.283C222.01 156.398 223.199 156.34 225.488 155.849C230.298 154.865 233.834 153.13 236.761 150.295C245.02 142.369 246.613 127.299 240.354 115.874C237.224 110.089 232.646 105.692 227.082 103.002C223.923 101.469 221.894 100.775 218.098 99.9358C215.403 99.3573 214.302 99.2994 201.957 99.1837L188.714 99.0391L187.931 97.7085C184.106 91.0846 176.398 85.502 168.69 83.7375C165.299 82.9566 158.373 82.7541 155.243 83.3326Z" fill="white"/>
</svg>
