<svg width="1932" height="466" viewBox="0 0 1932 466" fill="none" xmlns="http://www.w3.org/2000/svg">
<path d="M1891.29 371V116.21H1931.65V371H1891.29Z" fill="white"/>
<path d="M1631.93 371L1721.53 116.21H1771.46L1861.07 371H1817.97L1798.48 313.886H1694.85L1675.02 371H1631.93ZM1706.48 277.976H1786.17L1741.02 144.596H1752.31L1706.48 277.976Z" fill="white"/>
<path d="M1566.91 371V112.106H1605.55V371H1566.91Z" fill="white"/>
<path d="M1444.03 375.104C1425.56 375.104 1409.15 370.886 1394.78 362.45C1380.65 353.786 1369.59 342.158 1361.61 327.566C1353.63 312.746 1349.64 296.216 1349.64 277.976C1349.64 259.28 1353.63 242.75 1361.61 228.386C1369.82 214.022 1380.76 202.736 1394.44 194.528C1408.12 186.092 1423.63 181.874 1440.95 181.874C1454.86 181.874 1467.29 184.268 1478.23 189.056C1489.18 193.844 1498.41 200.456 1505.93 208.892C1513.46 217.1 1519.16 226.562 1523.03 237.278C1527.14 247.994 1529.19 259.394 1529.19 271.478C1529.19 274.442 1529.08 277.52 1528.85 280.712C1528.62 283.904 1528.16 286.868 1527.48 289.604H1380.08V258.824H1505.59L1487.12 272.846C1489.4 261.674 1488.61 251.756 1484.73 243.092C1481.08 234.2 1475.38 227.246 1467.63 222.23C1460.11 216.986 1451.21 214.364 1440.95 214.364C1430.69 214.364 1421.57 216.986 1413.59 222.23C1405.61 227.246 1399.46 234.542 1395.13 244.118C1390.79 253.466 1389.08 264.866 1390 278.318C1388.86 290.858 1390.57 301.802 1395.13 311.15C1399.91 320.498 1406.53 327.794 1414.96 333.038C1423.63 338.282 1433.43 340.904 1444.37 340.904C1455.55 340.904 1465.01 338.396 1472.76 333.38C1480.74 328.364 1487.01 321.866 1491.57 313.886L1523.03 329.276C1519.39 337.94 1513.69 345.806 1505.93 352.874C1498.41 359.714 1489.29 365.186 1478.57 369.29C1468.09 373.166 1456.57 375.104 1444.03 375.104Z" fill="white"/>
<path d="M1042.88 371V185.978H1079.82V225.992L1075.03 219.836C1078.91 207.296 1085.98 197.834 1096.24 191.45C1106.5 185.066 1118.24 181.874 1131.46 181.874C1146.28 181.874 1159.39 185.864 1170.79 193.844C1182.42 201.596 1190.17 211.97 1194.05 224.966L1183.1 225.992C1188.58 211.172 1196.9 200.114 1208.07 192.818C1219.47 185.522 1232.47 181.874 1247.06 181.874C1259.83 181.874 1271.34 184.838 1281.6 190.766C1292.09 196.694 1300.41 204.902 1306.57 215.39C1312.72 225.878 1315.8 237.848 1315.8 251.3V371H1277.15V261.902C1277.15 252.554 1275.44 244.688 1272.02 238.304C1268.83 231.692 1264.27 226.676 1258.34 223.256C1252.64 219.608 1245.92 217.784 1238.17 217.784C1230.41 217.784 1223.57 219.608 1217.65 223.256C1211.72 226.676 1207.04 231.692 1203.62 238.304C1200.2 244.916 1198.49 252.782 1198.49 261.902V371H1160.19V261.902C1160.19 252.554 1158.48 244.688 1155.06 238.304C1151.87 231.692 1147.31 226.676 1141.38 223.256C1135.68 219.608 1128.84 217.784 1120.86 217.784C1113.11 217.784 1106.27 219.608 1100.34 223.256C1094.41 226.676 1089.74 231.692 1086.32 238.304C1083.13 244.916 1081.53 252.782 1081.53 261.902V371H1042.88Z" fill="white"/>
<path d="M900.57 375.104C888.03 375.104 876.972 372.938 867.396 368.606C858.048 364.046 850.752 357.89 845.508 350.138C840.264 342.158 837.642 332.81 837.642 322.094C837.642 312.062 839.808 303.056 844.14 295.076C848.7 287.096 855.654 280.37 865.002 274.898C874.35 269.426 886.092 265.55 900.228 263.27L964.524 252.668V283.106L907.752 293.024C897.492 294.848 889.968 298.154 885.18 302.942C880.392 307.502 877.998 313.43 877.998 320.726C877.998 327.794 880.62 333.608 885.864 338.168C891.336 342.5 898.29 344.666 906.726 344.666C917.214 344.666 926.334 342.386 934.086 337.826C942.066 333.266 948.222 327.224 952.554 319.7C956.886 311.948 959.052 303.398 959.052 294.05V246.512C959.052 237.392 955.632 229.982 948.792 224.282C942.18 218.354 933.288 215.39 922.116 215.39C911.856 215.39 902.85 218.126 895.098 223.598C887.574 228.842 881.988 235.682 878.34 244.118L846.192 228.044C849.612 218.924 855.198 210.944 862.95 204.104C870.702 197.036 879.708 191.564 889.968 187.688C900.456 183.812 911.514 181.874 923.142 181.874C937.734 181.874 950.616 184.61 961.788 190.082C973.188 195.554 981.966 203.192 988.122 212.996C994.506 222.572 997.698 233.744 997.698 246.512V371H960.762V337.484L968.628 338.51C964.296 346.034 958.71 352.532 951.87 358.004C945.258 363.476 937.62 367.694 928.956 370.658C920.52 373.622 911.058 375.104 900.57 375.104Z" fill="white"/>
<path d="M727.325 375.104C708.857 375.104 692.441 370.886 678.077 362.45C663.941 353.786 652.655 342.158 644.219 327.566C636.011 312.974 631.907 296.444 631.907 277.976C631.907 259.736 636.011 243.32 644.219 228.728C652.427 214.136 663.713 202.736 678.077 194.528C692.441 186.092 708.857 181.874 727.325 181.874C739.865 181.874 751.607 184.154 762.551 188.714C773.495 193.046 782.957 199.088 790.937 206.84C799.145 214.592 805.187 223.598 809.063 233.858L775.205 249.59C771.329 240.014 765.059 232.376 756.395 226.676C747.959 220.748 738.269 217.784 727.325 217.784C716.837 217.784 707.375 220.406 698.939 225.65C690.731 230.666 684.233 237.848 679.445 247.196C674.657 256.316 672.263 266.69 672.263 278.318C672.263 289.946 674.657 300.434 679.445 309.782C684.233 318.902 690.731 326.084 698.939 331.328C707.375 336.572 716.837 339.194 727.325 339.194C738.497 339.194 748.187 336.344 756.395 330.644C764.831 324.716 771.101 316.85 775.205 307.046L809.063 323.12C805.415 332.924 799.487 341.816 791.279 349.796C783.299 357.548 773.837 363.704 762.893 368.264C751.949 372.824 740.093 375.104 727.325 375.104Z" fill="white"/>
<path d="M0 120C0 63.4315 0 35.1472 17.5736 17.5736C35.1472 0 63.4315 0 120 0H346C402.569 0 430.853 0 448.426 17.5736C466 35.1472 466 63.4315 466 120V346C466 402.569 466 430.853 448.426 448.426C430.853 466 402.569 466 346 466H120C63.4315 466 35.1472 466 17.5736 448.426C0 430.853 0 402.569 0 346V120Z" fill="#444444" fill-opacity="0.4"/>
<path d="M155.243 83.3326C147.854 84.7499 141.247 88.1921 135.422 93.7458C134.002 95.1052 132.756 96.2044 132.64 96.2044C132.553 96.2044 131.51 95.2499 130.351 94.0928C127.511 91.2871 125.077 89.7251 121.802 88.6838C113.543 86.0227 104.589 89.6673 100.792 97.2168C99.2855 100.254 98.7059 103.956 99.1406 107.861C100.039 115.671 104.589 121.225 111.833 123.365C113.456 123.857 118.382 124.841 119.165 124.841C119.947 124.841 119.947 124.956 115.514 149.716C112.674 165.51 110.877 179.307 110.153 190.935C109.138 206.873 110.761 224.142 114.354 236.493C115.861 241.584 116.035 242.133 117.687 246.472C121.251 255.931 125.743 263.972 132.002 272.071C135.364 276.41 138.233 279.592 146.695 288.269C155.156 296.976 156.576 298.596 159.764 303.455C163.908 309.732 167.212 317.05 169.298 324.571C171.993 334.203 172.805 339.93 174.34 359.281C175.181 370.042 175.326 371.025 176.63 373.744C178.021 376.608 179.093 377.967 181.266 379.529C185.613 382.595 187.729 382.971 201.146 383C210.303 383 211.665 382.942 213.607 382.451C220.069 380.802 223.749 377.446 225.459 371.575C225.98 369.752 226.357 367.178 227.227 358.847C230.211 330.732 232.182 320.608 236.268 312.422C240.934 303.137 249.279 296.311 258.437 294.344C266 292.724 273.1 293.649 279.562 297.063C288.806 301.98 294.805 310.339 297.239 321.707C298.572 328.013 299.5 337.182 300.253 351.616C301.122 368.74 301.325 370.244 302.919 373.599C304.513 376.897 306.744 379.124 310.106 380.802C314.279 382.827 315.467 383 327.058 383C338.476 383 338.94 382.942 343.373 380.831C346.358 379.413 348.995 376.897 350.357 374.207C351.777 371.459 352.299 368.277 353.139 358.124C355.342 330.819 358.558 309.645 363.977 286.36C365.223 281.096 367.049 269.959 367.658 264.261C368.179 259.112 368.092 249.625 367.484 243.869C366.73 236.984 364.673 228.625 362.094 222.117C356.646 208.348 346.271 193.596 331.84 179.22C325.088 172.452 319.872 168.547 312.656 164.787C304.252 160.419 296.254 158.568 285.764 158.597C271.129 158.626 260.407 162.125 249.048 170.63C243.223 174.968 238.441 179.77 228.936 190.791C217.461 204.125 213.636 207.567 207.318 210.171C204.362 211.414 201.551 211.964 198.248 211.964C194.597 211.935 191.67 211.299 188.685 209.852C185.41 208.233 181.875 204.762 180.078 201.348C177.963 197.299 177.528 195.274 177.528 188.91C177.528 184.051 177.615 183.096 178.224 180.667C179.296 176.444 181.846 170.832 183.932 168.055C185.787 165.597 187.468 163.948 194.162 157.989C197.668 154.836 200.624 152.175 200.711 152.031C200.798 151.886 201.754 152.117 202.826 152.522C210.622 155.473 213.143 156.08 218.388 156.283C222.01 156.398 223.199 156.34 225.488 155.849C230.298 154.865 233.834 153.13 236.761 150.295C245.02 142.369 246.613 127.299 240.354 115.874C237.224 110.089 232.646 105.692 227.082 103.002C223.923 101.469 221.894 100.775 218.098 99.9358C215.403 99.3573 214.302 99.2994 201.957 99.1837L188.714 99.0391L187.931 97.7085C184.106 91.0846 176.398 85.502 168.69 83.7375C165.299 82.9566 158.373 82.7541 155.243 83.3326Z" fill="white"/>
</svg>
